<svg width="203" height="60" viewBox="0 0 203 60" fill="none" xmlns="http://www.w3.org/2000/svg">
<path d="M201.104 52.9161C201.104 56.0913 198.532 58.6624 195.351 58.6624H7.09592C3.91671 58.6624 1.33594 56.0905 1.33594 52.9161V7.08976C1.33594 3.91623 3.91671 1.33545 7.09592 1.33545H195.349C198.532 1.33545 201.102 3.91623 201.102 7.08976L201.104 52.9161Z" fill="white"/>
<path d="M195.35 60H7.09531C3.18406 60 0 56.8232 0 52.916V7.09126C0 3.18082 3.18406 0 7.09531 0H195.349C199.256 0 202.444 3.18082 202.444 7.09126V52.9168C202.447 56.8232 199.258 60 195.35 60Z" fill="#FF715B"/>
<path d="M201.104 52.9161C201.104 56.0913 198.532 58.6624 195.351 58.6624H7.09592C3.91671 58.6624 1.33594 56.0905 1.33594 52.9161V7.08976C1.33594 3.91623 3.91671 1.33545 7.09592 1.33545H195.349C198.532 1.33545 201.102 3.91623 201.102 7.08976L201.104 52.9161Z" fill="#FF715B"/>
<path d="M45.204 29.6842C45.1603 24.8482 49.1638 22.4957 49.3469 22.3864C47.0795 19.0809 43.5658 18.629 42.3309 18.5934C39.3792 18.2825 36.5167 20.3595 35.0137 20.3595C33.48 20.3595 31.1648 18.6234 28.6699 18.6744C25.4591 18.7238 22.4556 20.583 20.8077 23.4699C17.4082 29.3562 19.9437 38.0055 23.2006 42.7638C24.8299 45.0951 26.7337 47.6954 29.2262 47.6039C31.6645 47.5051 32.5755 46.0507 35.5174 46.0507C38.4326 46.0507 39.2877 47.6039 41.8296 47.5447C44.4469 47.5042 46.094 45.2045 47.6666 42.8529C49.5493 40.1838 50.3056 37.552 50.3356 37.4168C50.2749 37.3965 45.255 35.479 45.204 29.6842ZM40.4028 15.4628C41.7138 13.823 42.6111 11.592 42.3625 9.32788C40.4644 9.4121 38.0909 10.6405 36.724 12.2447C35.515 13.6578 34.4347 15.9746 34.7133 18.1537C36.8454 18.3124 39.0343 17.0775 40.4028 15.4628Z" fill="white"/>
<path d="M80.5182 47.2687H77.1106L75.2441 41.4035H68.7561L66.9778 47.2687H63.6602L70.089 27.3011H74.0594L80.5182 47.2687ZM74.6821 38.9433L72.9945 33.7292C72.8164 33.1963 72.4795 31.942 71.988 29.9677H71.928C71.7296 30.8172 71.413 32.0715 70.9798 33.7292L69.3205 38.9433H74.6821ZM97.0199 39.8932C97.0199 42.342 96.3551 44.2774 95.0246 45.6986C93.8334 46.9634 92.3524 47.5951 90.5862 47.5951C88.6792 47.5951 87.3082 46.9148 86.475 45.5528V53.1072H83.2763V37.6032C83.2763 36.0654 83.2358 34.4879 83.1581 32.8708H85.9713L86.1494 35.1528H86.2093C87.2758 33.4336 88.8954 32.5736 91.068 32.5736C92.7662 32.5736 94.1841 33.2441 95.3186 34.5875C96.4515 35.9334 97.0199 37.7011 97.0199 39.8932ZM93.7614 40.0098C93.7614 38.6081 93.4464 37.4533 92.8131 36.5423C92.1216 35.5957 91.1927 35.122 90.0283 35.122C89.2387 35.122 88.5221 35.386 87.8815 35.9067C87.2394 36.4322 86.8191 37.1173 86.6231 37.9667C86.5244 38.3627 86.475 38.6858 86.475 38.9409V41.3427C86.475 42.3882 86.7964 43.2724 87.4386 43.9956C88.0808 44.7155 88.9148 45.0774 89.9416 45.0774C91.1466 45.0774 92.0843 44.611 92.7548 43.6854C93.4253 42.7558 93.7614 41.5314 93.7614 40.0098ZM113.58 39.8932C113.58 42.342 112.915 44.2774 111.585 45.6986C110.392 46.9634 108.912 47.5951 107.145 47.5951C105.238 47.5951 103.867 46.9148 103.033 45.5528V53.1072H99.8347V37.6032C99.8347 36.0654 99.7943 34.4879 99.7165 32.8708H102.53L102.708 35.1528H102.768C103.833 33.4336 105.452 32.5736 107.626 32.5736C109.323 32.5736 110.741 33.2441 111.878 34.5875C113.01 35.9334 113.58 37.7011 113.58 39.8932ZM110.32 40.0098C110.32 38.6081 110.003 37.4533 109.37 36.5423C108.678 35.5957 107.753 35.122 106.588 35.122C105.799 35.122 105.082 35.386 104.438 35.9067C103.796 36.4322 103.378 37.1173 103.181 37.9667C103.084 38.3627 103.031 38.6858 103.031 38.9409V41.3427C103.031 42.3882 103.353 43.2724 103.993 43.9956C104.635 44.7147 105.469 45.0774 106.498 45.0774C107.705 45.0774 108.643 44.611 109.312 43.6854C109.984 42.7558 110.32 41.5314 110.32 40.0098ZM132.095 41.6683C132.095 43.368 131.5 44.7503 130.32 45.8168C129.02 46.9812 127.206 47.5651 124.88 47.5651C122.732 47.5651 121.01 47.1513 119.71 46.3213L120.449 43.6547C121.852 44.4855 123.393 44.9001 125.071 44.9001C126.277 44.9001 127.215 44.6272 127.884 44.0855C128.554 43.5421 128.894 42.8157 128.894 41.9096C128.894 41.0982 128.614 40.418 128.063 39.8649C127.509 39.3126 126.594 38.7984 125.308 38.3255C121.812 37.0217 120.062 35.1147 120.062 32.606C120.062 30.9678 120.68 29.626 121.914 28.5773C123.148 27.5303 124.783 27.0063 126.817 27.0063C128.635 27.0063 130.148 27.323 131.35 27.9546L130.547 30.5621C129.416 29.9499 128.139 29.6438 126.711 29.6438C125.583 29.6438 124.697 29.9216 124.064 30.4738C123.531 30.9678 123.262 31.5695 123.262 32.2837C123.262 33.0716 123.569 33.7259 124.182 34.2385C124.713 34.7106 125.682 35.2256 127.083 35.7779C128.802 36.4711 130.066 37.2784 130.875 38.2056C131.69 39.132 132.095 40.2892 132.095 41.6683ZM142.698 35.2718H139.172V42.2618C139.172 44.0401 139.793 44.9268 141.039 44.9268C141.611 44.9268 142.084 44.879 142.46 44.7786L142.548 47.208C141.918 47.4436 141.088 47.5619 140.061 47.5619C138.797 47.5619 137.81 47.1764 137.098 46.4047C136.388 45.6338 136.031 44.3414 136.031 42.5234V35.2661H133.931V32.8651H136.031V30.2293L139.173 29.281V32.8651H142.699V35.2718H142.698ZM158.576 39.9515C158.576 42.1647 157.942 43.9818 156.679 45.4022C155.357 46.8654 153.599 47.5942 151.407 47.5942C149.291 47.5942 147.609 46.8938 146.354 45.4937C145.1 44.0903 144.473 42.3234 144.473 40.1912C144.473 37.9603 145.121 36.1326 146.413 34.7114C147.708 33.2886 149.452 32.5776 151.644 32.5776C153.757 32.5776 155.454 33.2797 156.737 34.6815C157.965 36.0411 158.576 37.7967 158.576 39.9515ZM155.259 40.0252C155.259 38.7061 154.974 37.5748 154.403 36.6282C153.732 35.4848 152.772 34.9131 151.528 34.9131C150.247 34.9131 149.264 35.4848 148.595 36.6282C148.022 37.5748 147.737 38.7255 147.737 40.0851C147.737 41.4059 148.022 42.5396 148.595 43.4838C149.287 44.6272 150.252 45.1989 151.501 45.1989C152.724 45.1989 153.683 44.6151 154.376 43.4555C154.964 42.4853 155.259 41.3468 155.259 40.0252ZM168.978 35.684C168.661 35.6257 168.322 35.5957 167.97 35.5957C166.844 35.5957 165.975 36.0192 165.362 36.8711C164.831 37.621 164.564 38.5692 164.564 39.7143V47.2687H161.365V37.4056C161.365 35.7479 161.334 34.2353 161.272 32.8732H164.059L164.176 35.6281H164.264C164.604 34.6815 165.135 33.9178 165.864 33.3461C166.576 32.8319 167.345 32.5752 168.175 32.5752C168.471 32.5752 168.738 32.5963 168.976 32.6335L168.978 35.684ZM183.284 39.3887C183.284 39.9621 183.247 40.4447 183.167 40.8399H173.57C173.606 42.2626 174.072 43.3518 174.962 44.1017C175.771 44.7713 176.817 45.1066 178.101 45.1066C179.522 45.1066 180.818 44.8815 181.984 44.4272L182.485 46.646C181.123 47.2404 179.514 47.5359 177.658 47.5359C175.425 47.5359 173.673 46.8784 172.398 45.5674C171.126 44.2547 170.487 42.4902 170.487 40.2803C170.487 38.1109 171.08 36.3026 172.267 34.8604C173.509 33.321 175.188 32.5509 177.3 32.5509C179.375 32.5509 180.946 33.321 182.013 34.8604C182.86 36.0808 183.284 37.5926 183.284 39.3887ZM180.234 38.5587C180.257 37.6088 180.046 36.7909 179.613 36.0994C179.059 35.2078 178.207 34.7641 177.065 34.7641C176.02 34.7641 175.167 35.1973 174.519 36.0678C173.986 36.7594 173.67 37.591 173.573 38.5555L180.234 38.5587Z" fill="white"/>
<path d="M73.14 20.1546H71.4638L70.5471 17.2726H67.359L66.4844 20.1546H64.8535L68.0133 10.34H69.964L73.14 20.1546ZM70.271 16.0635L69.4409 13.5006C69.3543 13.2382 69.1931 12.6276 68.9462 11.6519H68.9162C68.8142 12.0738 68.6684 12.6859 68.4498 13.5006L67.6351 16.0635H70.271ZM81.0411 13.0787L78.3615 20.1546H76.8326L74.2397 13.0787H75.9289L77.1379 16.8207C77.342 17.4467 77.5161 18.0435 77.6465 18.6103H77.6902C77.8076 18.1018 77.9809 17.5042 78.1987 16.8207L79.3932 13.0787H81.0411ZM86.746 20.1546L86.6286 19.3399H86.5848C86.1046 19.9959 85.4058 20.3149 84.5175 20.3149C83.251 20.3149 82.348 19.4266 82.348 18.2321C82.348 16.4854 83.8623 15.5825 86.4828 15.5825V15.4522C86.4828 14.5201 85.988 14.0537 85.0122 14.0537C84.3126 14.0537 83.7012 14.2294 83.1635 14.5784L82.8436 13.5443C83.4996 13.1362 84.3142 12.9321 85.2754 12.9321C87.1241 12.9321 88.057 13.9071 88.057 15.8595V18.4654C88.057 19.1796 88.087 19.7335 88.159 20.1546H86.746ZM86.5265 16.6304C84.779 16.6304 83.9053 17.0539 83.9053 18.0572C83.9053 18.7998 84.3571 19.1634 84.9823 19.1634C85.7831 19.1634 86.5265 18.5528 86.5265 17.7228V16.6304ZM91.5601 11.9134C91.0362 11.9134 90.6281 11.5053 90.6281 10.9668C90.6281 10.4283 91.05 10.0347 91.5901 10.0347C92.1286 10.0347 92.5651 10.4275 92.5505 10.9668C92.5513 11.5352 92.144 11.9134 91.5601 11.9134ZM92.3764 20.1546H90.8038V13.0787H92.3764V20.1546ZM96.7427 20.1546H95.1701V9.83228H96.7427V20.1546ZM103.426 20.1546L103.308 19.3399H103.265C102.785 19.9959 102.086 20.3149 101.197 20.3149C99.9308 20.3149 99.0279 19.4266 99.0279 18.2321C99.0279 16.4854 100.541 15.5825 103.163 15.5825V15.4522C103.163 14.5201 102.668 14.0537 101.692 14.0537C100.993 14.0537 100.381 14.2294 99.8434 14.5784L99.5227 13.5435C100.179 13.1354 100.993 12.9313 101.954 12.9313C103.803 12.9313 104.736 13.9063 104.736 15.8587V18.4646C104.736 19.1788 104.768 19.7327 104.837 20.1538L103.426 20.1546ZM103.206 16.6304C101.458 16.6304 100.585 17.0539 100.585 18.0572C100.585 18.7998 101.037 19.1634 101.662 19.1634C102.463 19.1634 103.206 18.5528 103.206 17.7228V16.6304ZM111.108 20.3157C110.104 20.3157 109.363 19.8922 108.883 19.063H108.851L108.762 20.1554H107.421C107.465 19.5885 107.48 18.9464 107.48 18.2483V9.83228H109.054V14.1144H109.084C109.55 13.3281 110.305 12.9354 111.341 12.9354C113.045 12.9354 114.24 14.3922 114.24 16.517C114.239 18.7132 112.912 20.3157 111.108 20.3157ZM110.788 14.1695C109.884 14.1695 109.055 14.9558 109.055 16.0482V17.2863C109.055 18.2613 109.8 19.063 110.762 19.063C111.939 19.063 112.64 18.1026 112.64 16.5737C112.638 15.1469 111.909 14.1695 110.788 14.1695ZM118.136 20.1546H116.565V9.83228H118.136V20.1546ZM126.696 16.9948H121.976C122.007 18.335 122.892 19.0905 124.203 19.0905C124.902 19.0905 125.543 18.9731 126.11 18.7561L126.355 19.8485C125.686 20.1392 124.9 20.2849 123.983 20.2849C121.768 20.2849 120.459 18.8865 120.459 16.7187C120.459 14.5493 121.801 12.9184 123.806 12.9184C125.611 12.9184 126.748 14.2585 126.748 16.2822C126.754 16.5583 126.74 16.8061 126.696 16.9948ZM125.254 15.8741C125.254 14.7817 124.7 14.0108 123.695 14.0108C122.791 14.0108 122.08 14.797 121.976 15.8741H125.254ZM136.226 20.3157C134.159 20.3157 132.819 18.7715 132.819 16.6757C132.819 14.491 134.187 12.9337 136.344 12.9337C138.38 12.9337 139.752 14.4043 139.752 16.5599C139.752 18.7715 138.339 20.3157 136.226 20.3157ZM136.286 14.0828C135.15 14.0828 134.423 15.1453 134.423 16.6304C134.423 18.0872 135.165 19.1496 136.271 19.1496C137.378 19.1496 138.119 18.0135 138.119 16.6004C138.119 15.1598 137.392 14.0828 136.286 14.0828ZM148.205 20.1546H146.634V16.0911C146.634 14.84 146.154 14.2124 145.207 14.2124C144.275 14.2124 143.633 15.0133 143.633 15.9453V20.1538H142.062V15.1007C142.062 14.4748 142.046 13.8043 142.004 13.0771H143.387L143.461 14.1695H143.504C143.925 13.4131 144.785 12.9313 145.746 12.9313C147.229 12.9313 148.205 14.0674 148.205 15.9154V20.1546ZM158.493 14.2585H156.764V17.6944C156.764 18.569 157.068 19.0055 157.679 19.0055C157.957 19.0055 158.191 18.9755 158.378 18.9318L158.421 20.1262C158.115 20.2436 157.706 20.3019 157.2 20.3019C155.961 20.3019 155.221 19.6177 155.221 17.8264V14.2585H154.189V13.0795H155.221V11.7822L156.764 11.3158V13.0771H158.493V14.2585ZM166.821 20.1546H165.247V16.1219C165.247 14.8554 164.767 14.2148 163.82 14.2148C163.006 14.2148 162.249 14.7687 162.249 15.8894V20.1554H160.675V9.83228H162.249V14.0828H162.279C162.774 13.3119 163.488 12.9321 164.405 12.9321C165.904 12.9321 166.82 14.0966 166.82 15.9461V20.1546H166.821ZM174.856 16.9948H170.137C170.167 18.335 171.052 19.0905 172.364 19.0905C173.065 19.0905 173.704 18.9731 174.271 18.7561L174.517 19.8485C173.848 20.1392 173.061 20.2849 172.144 20.2849C169.929 20.2849 168.62 18.8865 168.62 16.7187C168.62 14.5493 169.962 12.9184 171.967 12.9184C173.772 12.9184 174.909 14.2585 174.909 16.2822C174.914 16.5583 174.899 16.8061 174.856 16.9948ZM173.414 15.8741C173.414 14.7817 172.861 14.0108 171.857 14.0108C170.952 14.0108 170.24 14.797 170.137 15.8741H173.414Z" fill="white"/>
</svg>
