<svg width="204" height="60" viewBox="0 0 204 60" fill="none" xmlns="http://www.w3.org/2000/svg">
<path d="M195.644 60H7.52454C3.31083 60 0 56.7001 0 52.5002V7.4998C0 3.29994 3.31083 0 7.52454 0H195.643C199.857 0 203.168 3.29994 203.168 7.4998V52.5002C203.168 56.7001 199.857 60 195.644 60Z" fill="#2C2C2C"/>
<path d="M195.644 1.19961C199.105 1.19961 201.965 4.05 201.965 7.4998V52.5002C201.965 55.95 199.105 58.8004 195.644 58.8004H7.52454C4.06337 58.8004 1.20357 55.95 1.20357 52.5002V7.4998C1.20357 4.05 4.06337 1.19961 7.52454 1.19961H195.644ZM195.644 0H7.52454C3.31083 0 0 3.44979 0 7.4998V52.5002C0 56.7001 3.31083 60 7.52454 60H195.643C199.857 60 203.168 56.7001 203.168 52.5002V7.4998C203.168 3.44979 199.857 0 195.644 0Z" fill="#2C2C2C"/>
<path d="M71.3343 15.3C71.3343 16.4996 71.0336 17.5502 70.2811 18.3003C69.3782 19.2002 68.325 19.6505 66.9702 19.6505C65.6155 19.6505 64.5623 19.2002 63.6594 18.3003C62.7565 17.4003 62.3047 16.3506 62.3047 15.0003C62.3047 13.65 62.7565 12.6003 63.6594 11.7004C64.5623 10.8005 65.6155 10.3501 66.9702 10.3501C67.5724 10.3501 68.1738 10.4999 68.776 10.8005C69.3782 11.1002 69.8292 11.4007 70.1307 11.8502L69.3782 12.6003C68.776 11.8502 68.0235 11.5505 66.9702 11.5505C66.0674 11.5505 65.1645 11.8502 64.5623 12.6003C63.8098 13.2005 63.5091 14.1004 63.5091 15.1502C63.5091 16.1999 63.8098 17.0998 64.5623 17.7C65.3148 18.3003 66.0674 18.7498 66.9702 18.7498C68.0235 18.7498 68.776 18.4501 69.5285 17.7C69.9804 17.2497 70.2811 16.6503 70.2811 15.9002H66.9702V14.7006H71.3343V15.3ZM78.2567 11.5497H74.1933V14.4001H77.956V15.4499H74.1933V18.3003H78.2567V19.4999H72.9897V10.4999H78.2567V11.5497ZM83.2229 19.4999H82.0193V11.5497H79.461V10.4999H85.782V11.5497H83.2237V19.4999H83.2229ZM90.1461 19.4999V10.4999H91.3496V19.4999H90.1461ZM96.467 19.4999H95.2635V11.5497H92.7052V10.4999H98.8758V11.5497H96.3175V19.4999H96.467ZM110.764 18.3003C109.861 19.2002 108.807 19.6505 107.453 19.6505C106.098 19.6505 105.045 19.2002 104.142 18.3003C103.239 17.4003 102.787 16.3506 102.787 15.0003C102.787 13.65 103.239 12.6003 104.142 11.7004C105.045 10.8005 106.098 10.3501 107.453 10.3501C108.807 10.3501 109.861 10.8005 110.764 11.7004C111.666 12.6003 112.118 13.65 112.118 15.0003C112.118 16.3506 111.666 17.3995 110.764 18.3003ZM105.045 17.5502C105.647 18.1504 106.55 18.6 107.453 18.6C108.356 18.6 109.259 18.3003 109.861 17.5502C110.463 16.95 110.914 16.0501 110.914 15.0003C110.914 13.9506 110.613 13.0506 109.861 12.4504C109.259 11.8502 108.356 11.4007 107.453 11.4007C106.55 11.4007 105.647 11.7004 105.045 12.4504C104.443 13.0506 103.992 13.9506 103.992 15.0003C103.992 16.0501 104.292 16.95 105.045 17.5502ZM113.774 19.4999V10.4999H115.128L119.493 17.5502V10.4999H120.696V19.4999H119.493L114.827 12.1499V19.4999H113.774Z" fill="white" stroke="white" stroke-width="0.2" stroke-miterlimit="10"/>
<path d="M102.486 32.6998C98.8748 32.6998 96.015 35.3996 96.015 39.1499C96.015 42.7495 98.8748 45.5999 102.486 45.5999C106.098 45.5999 108.958 42.9002 108.958 39.1499C108.958 35.2505 106.099 32.6998 102.486 32.6998ZM102.486 42.9002C100.53 42.9002 98.8749 41.2502 98.8749 39C98.8749 36.7498 100.53 35.0999 102.486 35.0999C104.442 35.0999 106.098 36.6 106.098 39C106.099 41.2502 104.443 42.9002 102.486 42.9002ZM88.4905 32.6998C84.879 32.6998 82.0192 35.3996 82.0192 39.1499C82.0192 42.7495 84.879 45.5999 88.4905 45.5999C92.102 45.5999 94.9618 42.9002 94.9618 39.1499C94.9618 35.2505 92.102 32.6998 88.4905 32.6998ZM88.4905 42.9002C86.5344 42.9002 84.879 41.2502 84.879 39C84.879 36.7498 86.5344 35.0999 88.4905 35.0999C90.4466 35.0999 92.102 36.6 92.102 39C92.102 41.2502 90.4466 42.9002 88.4905 42.9002ZM71.7852 34.6503V37.35H78.2565C78.1062 38.8502 77.504 40.0498 76.7514 40.7998C75.8486 41.6998 74.3435 42.7495 71.7852 42.7495C67.7218 42.7495 64.7117 39.5994 64.7117 35.5494C64.7117 31.4994 67.873 28.3501 71.7852 28.3501C73.8925 28.3501 75.5479 29.25 76.7514 30.2998L78.7084 28.3501C77.0529 26.85 74.9457 25.6504 71.9364 25.6504C66.5183 25.6504 61.8535 30.1508 61.8535 35.5502C61.8535 40.9497 66.5191 45.4501 71.9364 45.4501C74.9465 45.4501 77.0529 44.5501 78.8595 42.5997C80.6653 40.7998 81.2675 38.25 81.2675 36.2995C81.2675 35.6993 81.2675 35.0999 81.1171 34.6495L71.7852 34.6503ZM140.11 36.7498C139.508 35.2497 138.003 32.6998 134.692 32.6998C131.381 32.6998 128.672 35.2497 128.672 39.1499C128.672 42.7495 131.381 45.5999 134.993 45.5999C137.853 45.5999 139.659 43.8001 140.26 42.7495L138.154 41.2502C137.401 42.3 136.498 43.05 134.993 43.05C133.488 43.05 132.585 42.4498 131.833 41.1004L140.411 37.5007L140.11 36.7498ZM131.382 38.8502C131.382 36.4501 133.338 35.0999 134.693 35.0999C135.746 35.0999 136.8 35.7001 137.101 36.4501L131.382 38.8502ZM124.308 45.0005H127.168V26.2498H124.308V45.0005ZM119.793 34.0501C119.041 33.3 117.837 32.55 116.332 32.55C113.171 32.55 110.161 35.4004 110.161 39C110.161 42.5997 113.021 45.3002 116.332 45.3002C117.837 45.3002 119.041 44.5501 119.643 43.8001H119.793V44.7C119.793 47.1 118.438 48.4503 116.332 48.4503C114.676 48.4503 113.472 47.2507 113.171 46.2001L110.763 47.2499C111.516 48.8999 113.322 51.0002 116.482 51.0002C119.793 51.0002 122.502 49.0505 122.502 44.4003V33.0003H119.793V34.0501ZM116.482 42.9002C114.526 42.9002 112.871 41.2502 112.871 39C112.871 36.7498 114.526 35.0999 116.482 35.0999C118.438 35.0999 119.943 36.7498 119.943 39C119.943 41.2502 118.439 42.9002 116.482 42.9002ZM153.204 26.2498H146.432V44.9997H149.291V37.9494H153.204C156.365 37.9494 159.375 35.6993 159.375 32.0996C159.375 28.5 156.363 26.2498 153.204 26.2498ZM153.354 35.2505H149.291V28.8005H153.354C155.461 28.8005 156.665 30.6003 156.665 31.9506C156.515 33.5997 155.31 35.2505 153.354 35.2505ZM170.661 32.55C168.553 32.55 166.447 33.4499 165.694 35.4004L168.253 36.4501C168.855 35.4004 169.758 35.0999 170.811 35.0999C172.316 35.0999 173.671 35.9998 173.821 37.4999V37.6497C173.369 37.35 172.166 36.8997 170.961 36.8997C168.253 36.8997 165.543 38.3998 165.543 41.0995C165.543 43.6494 167.801 45.2994 170.209 45.2994C172.165 45.2994 173.069 44.3995 173.82 43.4996H173.971V44.9997H176.679V37.7996C176.38 34.5005 173.821 32.55 170.661 32.55ZM170.36 42.9002C169.457 42.9002 168.102 42.4498 168.102 41.2502C168.102 39.7501 169.758 39.3005 171.113 39.3005C172.316 39.3005 172.918 39.6002 173.671 39.9007C173.369 41.6998 171.864 42.9002 170.36 42.9002ZM186.162 33.0003L183.001 41.1004H182.851L179.54 33.0003H176.53L181.496 44.4003L178.636 50.7005H181.496L189.171 33.0003H186.162ZM160.879 45.0005H163.738V26.2498H160.879V45.0005Z" fill="white"/>
<path d="M15.651 11.25C15.1992 11.7004 15.0488 12.4496 15.0488 13.3503V46.5004C15.0488 47.4003 15.3495 48.1504 15.8014 48.6008L15.9517 48.7506L34.6131 30.1506V29.8509L15.651 11.25Z" fill="url(#paint0_linear_4_4133)"/>
<path d="M40.6335 36.4502L34.4629 30.2998V29.8495L40.6335 23.7L40.7839 23.8498L48.1581 28.0497C50.2653 29.2493 50.2653 31.1997 48.1581 32.3993L40.6335 36.4502Z" fill="url(#paint1_linear_4_4133)"/>
<path d="M40.7831 36.3002L34.4621 30L15.6504 48.7499C16.4029 49.5 17.4561 49.5 18.8109 48.8997L40.7831 36.3002Z" fill="url(#paint2_linear_4_4133)"/>
<path d="M40.7831 23.6998L18.8109 11.25C17.4561 10.5 16.4029 10.6498 15.6504 11.3999L34.4621 29.9999L40.7831 23.6998Z" fill="url(#paint3_linear_4_4133)"/>
<path opacity="0.2" d="M40.6328 36.1504L18.8109 48.4503C17.6073 49.2003 16.5533 49.0505 15.8007 48.4503L15.6504 48.6001L15.8007 48.75C16.5533 49.3502 17.6065 49.5 18.8109 48.75L40.6328 36.1504Z" fill="black"/>
<path opacity="0.12" d="M15.651 48.4502C15.1992 47.9998 15.0488 47.2506 15.0488 46.3499V46.4997C15.0488 47.3996 15.3495 48.1497 15.8014 48.6V48.4502H15.651ZM48.158 31.9497L40.6334 36.1503L40.7838 36.3002L48.158 32.1003C49.2112 31.5001 49.663 30.7501 49.663 30C49.663 30.7501 49.0608 31.3503 48.158 31.9497Z" fill="black"/>
<path opacity="0.25" d="M18.8115 11.4L48.158 28.0504C49.0608 28.6506 49.663 29.25 49.663 30.0001C49.663 29.25 49.2112 28.4999 48.158 27.8997L18.8115 11.2502C16.7042 10.0506 15.0488 10.9505 15.0488 13.3505V13.5003C15.0496 11.2502 16.7051 10.2004 18.8115 11.4Z" fill="white"/>
<defs>
<linearGradient id="paint0_linear_4_4133" x1="32.799" y1="13.0571" x2="7.62463" y2="38.313" gradientUnits="userSpaceOnUse">
<stop stop-color="#00A0FF"/>
<stop offset="0.007" stop-color="#00A1FF"/>
<stop offset="0.26" stop-color="#00BEFF"/>
<stop offset="0.512" stop-color="#00D2FF"/>
<stop offset="0.76" stop-color="#00DFFF"/>
<stop offset="1" stop-color="#00E3FF"/>
</linearGradient>
<linearGradient id="paint1_linear_4_4133" x1="50.9167" y1="30.0743" x2="14.5015" y2="30.0743" gradientUnits="userSpaceOnUse">
<stop stop-color="#FFE000"/>
<stop offset="0.409" stop-color="#FFBD00"/>
<stop offset="0.775" stop-color="#FFA500"/>
<stop offset="1" stop-color="#FF9C00"/>
</linearGradient>
<linearGradient id="paint2_linear_4_4133" x1="37.3436" y1="33.426" x2="3.2068" y2="67.6754" gradientUnits="userSpaceOnUse">
<stop stop-color="#FF3A44"/>
<stop offset="1" stop-color="#C31162"/>
</linearGradient>
<linearGradient id="paint3_linear_4_4133" x1="10.9257" y1="0.316379" x2="26.1702" y2="15.6109" gradientUnits="userSpaceOnUse">
<stop stop-color="#32A071"/>
<stop offset="0.069" stop-color="#2DA771"/>
<stop offset="0.476" stop-color="#15CF74"/>
<stop offset="0.801" stop-color="#06E775"/>
<stop offset="1" stop-color="#00F076"/>
</linearGradient>
</defs>
</svg>
